# xmcd
#
# Track frame offsets:
#	150
#	12150
#	23740
#	33137
#	46285
#	63605
#	82965
#	95107
#	103807
#	117210
#	136805
#	154224
#	165667
#	178889
#	193879
#	214939
#
# Disc length: 3166 seconds
#
# Revision: 0
# Processed by: cddbd v1.5.1PL0 Copyright (c) Steve Scherf et al.
# Submitted via: audiograbber 1.81.02
#
DISCID=da0c5c10
DTITLE=Sunshine Kids - Singen, Spielen, Lachen (www.gerth.de)
DYEAR=2005
DGENRE=Chorus
TTITLE0=Baumhaus
TTITLE1=Das A-B-C
TTITLE2=Rechnen ist nicht schwer
TTITLE3=Die Tonleiter
TTITLE4=Ich bin so froh
TTITLE5=Geburtstagsmonate
TTITLE6=Ganz tierisch
TTITLE7=Geburtstagslied
TTITLE8=Kunterbunte Welt
TTITLE9=Muttertag
TTITLE10=Die Wochentage
TTITLE11=Aufgepasst!
TTITLE12=Uhren
TTITLE13=Die Schöpfung
TTITLE14=Schöne Ferien
TTITLE15=Verkleiden
EXTD=
EXTT0=
EXTT1=
EXTT2=
EXTT3=
EXTT4=
EXTT5=
EXTT6=
EXTT7=
EXTT8=
EXTT9=
EXTT10=
EXTT11=
EXTT12=
EXTT13=
EXTT14=
EXTT15=
PLAYORDER=
